<?xml version="1.0" encoding="UTF-8" standalone="no"?>
<!-- Created with Inkscape (http://www.inkscape.org/) -->

<svg
   width="22mm"
   height="22mm"
   viewBox="0 0 22 22"
   version="1.1"
   id="svg5"
   xmlns="http://www.w3.org/2000/svg"
   xmlns:svg="http://www.w3.org/2000/svg">
  <defs
     id="defs2" />
  <g
     id="layer1">
    <path
       style="fill:none;stroke:#fd4719;stroke-width:2.74978;stroke-linecap:butt;stroke-linejoin:miter;stroke-miterlimit:4;stroke-dasharray:none;stroke-opacity:1"
       d="M 9.3560337,10.284905 H 20.356034 m -5.5,-5.4991259 V 15.78403"
       id="path11693" />
    <g
       id="text28754"
       style="font-weight:600;font-size:19.05px;line-height:1.25;font-family:'Mustica Pro';-inkscape-font-specification:'Mustica Pro, Semi-Bold';fill:#eee;stroke-width:0.264583"
       transform="translate(-8.2531333,-2.1546999)">
      <path
         d="m 10.6858,13.142 c 0,4.0005 3.048,7.0485 6.9723,7.0485 1.96215,0 3.9243,-0.7239 5.372099,-2.0955 V 12.4943 H 17.60095 v 2.2479 h 3.18135 v 2.30505 c -0.89535,0.5715 -2.00025,0.89535 -3.1242,0.89535 -2.7432,0 -4.7244,-2.0193 -4.7244,-4.8006 0,-2.7813 1.9812,-4.8005995 4.7244,-4.8005995 1.524,0 2.95275,0.6857999 3.82905,1.8478495 L 23.087349,8.6081005 C 21.79195,7.0269505 19.73455,6.0935006 17.5819,6.0935006 c -3.90525,0 -6.8961,3.0479998 -6.8961,7.0484994 z"
         id="path1219" />
    </g>
  </g>
</svg>
