<svg width="73mm" height="16mm" viewBox="0 0 73 16" xmlns="http://www.w3.org/2000/svg"><path style="fill:none;stroke:#fd4719;stroke-width:2.74978;stroke-linecap:butt;stroke-linejoin:miter;stroke-miterlimit:4;stroke-dasharray:none;stroke-opacity:1" d="M61.914 6.02h11m-5.5-5.5V11.52"/><g aria-label="Gallium" style="font-weight:600;font-size:19.05px;line-height:1.25;font-family:'Mustica Pro';-inkscape-font-specification:'Mustica Pro, Semi-Bold';fill:#eee;stroke-width:.264583"><path d="M.632 8.38c0 4 3.048 7.048 6.972 7.048 1.962 0 3.924-.724 5.372-2.095V7.732h-5.43V9.98h3.182v2.305c-.895.571-2 .895-3.124.895-2.743 0-4.724-2.02-4.724-4.8 0-2.782 1.98-4.801 4.724-4.801 1.524 0 2.953.686 3.829 1.848l1.6-1.581C11.738 2.264 9.68 1.33 7.528 1.33 3.622 1.331.632 4.379.632 8.38zM14.557 10.475c0 2.724 2 4.953 4.725 4.953 1.2 0 2.305-.629 2.933-1.41v1.22h2.248V5.713h-2.248v1.18c-.628-.742-1.733-1.371-2.933-1.371-2.725 0-4.725 2.229-4.725 4.953zM19.51 7.77a2.716 2.716 0 0 1 2.705 2.705 2.716 2.716 0 0 1-2.705 2.705 2.716 2.716 0 0 1-2.705-2.705A2.716 2.716 0 0 1 19.51 7.77zM28.92.95h-2.247v14.288h2.248zM33.379.95H31.13v14.288h2.248zM37.836 15.238V5.713h-2.248v9.525zM35.38 2.665c0 .742.59 1.352 1.333 1.352s1.334-.61 1.334-1.352c0-.724-.59-1.334-1.334-1.334-.743 0-1.333.61-1.333 1.334zM40.046 5.713v5.734c0 2.419 1.524 3.981 3.734 3.981a3.952 3.952 0 0 0 2.857-1.22v1.03h2.248V5.713h-2.248v5.143c0 1.486-1.01 2.457-2.305 2.457-1.2 0-2.038-.762-2.038-2.343V5.713zM51.095 15.238h2.248v-5.144c0-1.505 1.01-2.457 2.305-2.457 1.2 0 2.038.743 2.038 2.343v5.258h2.248v-5.182c0-1.467 1.01-2.42 2.305-2.42 1.2 0 2.039.744 2.039 2.344v5.258h2.247V9.503c0-2.419-1.524-3.981-3.733-3.981-1.524 0-2.534.705-3.391 1.79-.61-1.123-1.753-1.79-3.2-1.79a3.952 3.952 0 0 0-2.858 1.22v-1.03h-2.248z"/></g></svg>