<svg width="22mm" height="22mm" viewBox="0 0 22 22" xmlns="http://www.w3.org/2000/svg"><path style="fill:none;stroke:#fd4719;stroke-width:2.74978;stroke-linecap:butt;stroke-linejoin:miter;stroke-miterlimit:4;stroke-dasharray:none;stroke-opacity:1" d="M9.356 10.285h11m-5.5-5.5v10.999"/><path d="M10.686 13.142c0 4 3.048 7.048 6.972 7.048 1.962 0 3.924-.723 5.372-2.095v-5.6H17.6v2.247h3.182v2.305c-.895.572-2 .896-3.124.896-2.743 0-4.724-2.02-4.724-4.801s1.98-4.8 4.724-4.8c1.524 0 2.953.685 3.83 1.847l1.6-1.58c-1.296-1.582-3.353-2.515-5.506-2.515-3.905 0-6.896 3.048-6.896 7.048z" transform="translate(-8.253 -2.155)" style="font-weight:600;font-size:19.05px;line-height:1.25;font-family:'Mustica Pro';-inkscape-font-specification:'Mustica Pro, Semi-Bold';fill:#eee;stroke-width:.264583"/></svg>