<?xml version="1.0" standalone="no"?>
<!DOCTYPE svg PUBLIC "-//W3C//DTD SVG 20010904//EN"
 "http://www.w3.org/TR/2001/REC-SVG-20010904/DTD/svg10.dtd">
<svg version="1.0" xmlns="http://www.w3.org/2000/svg"
 width="260.000000pt" height="260.000000pt" viewBox="0 0 260.000000 260.000000"
 preserveAspectRatio="xMidYMid meet">
<metadata>
Created by potrace 1.14, written by Peter Selinger 2001-2017
</metadata>
<g transform="translate(0.000000,260.000000) scale(0.100000,-0.100000)"
fill="#000000" stroke="none">
<path d="M975 2125 c0 -261 -2 -481 -5 -488 -4 -10 -107 -12 -485 -12 l-480 0
0 -325 0 -325 483 0 c317 0 482 -3 483 -10 1 -5 2 -224 3 -485 l1 -475 325 0
325 0 1 470 c1 259 2 477 3 485 1 13 60 15 484 15 l482 0 3 325 2 325 -487 0
-488 0 0 487 0 488 -325 0 -325 0 0 -475z"/>
</g>
</svg>
